<svg width="30" height="36" viewBox="0 0 30 36" fill="none" xmlns="http://www.w3.org/2000/svg">
<path d="M14.8542 7.82708C13.6162 7.83102 12.4072 8.20191 11.3799 8.89287C10.3527 9.58382 9.55331 10.5638 9.08289 11.709C8.61247 12.8542 8.49211 14.1131 8.73701 15.3267C8.98192 16.5402 9.58109 17.654 10.4588 18.5271C11.3365 19.4002 12.4534 19.9934 13.6682 20.2319C14.883 20.4704 16.1412 20.3433 17.2839 19.8668C18.4265 19.3903 19.4022 18.5858 20.0877 17.5548C20.7732 16.5239 21.1376 15.3129 21.135 14.0748C21.128 12.4142 20.4629 10.8242 19.2856 9.65303C18.1083 8.48192 16.5148 7.8253 14.8542 7.82708Z" fill="#3EC5FF"/>
<path d="M3.44427 17.3966H4.91411C5.14076 17.3966 5.35812 17.3082 5.51838 17.1507C5.67864 16.9932 5.76868 16.7797 5.76868 16.557V10.982C5.76868 10.7594 5.67864 10.5458 5.51838 10.3883C5.35812 10.2309 5.14076 10.1424 4.91411 10.1424H4.00828C4.58686 7.73477 5.97588 5.58957 7.95032 4.05436C9.92475 2.51916 12.3689 1.6839 14.8868 1.6839C17.4048 1.6839 19.8489 2.51916 21.8234 4.05436C23.7978 5.58957 25.1868 7.73477 25.7654 10.1424H24.851C24.6244 10.1424 24.407 10.2309 24.2468 10.3883C24.0865 10.5458 23.9965 10.7594 23.9965 10.982V16.3639L22.2104 18.8239C22.2104 18.8239 22.2104 18.8239 22.2104 18.8743H22.0822C21.7509 18.8723 21.4276 18.9748 21.1601 19.1668C20.8925 19.3589 20.6948 19.6303 20.596 19.941C20.4973 20.2518 20.5027 20.5855 20.6115 20.893C20.7203 21.2005 20.9267 21.4656 21.2004 21.6491C21.4741 21.8327 21.8005 21.925 22.1316 21.9126C22.4627 21.9001 22.781 21.7835 23.0396 21.5799C23.2982 21.3764 23.4834 21.0966 23.568 20.7818C23.6526 20.467 23.632 20.1339 23.5094 19.8315C23.5094 19.8315 23.5521 19.8315 23.5692 19.7727L25.2783 17.4554H26.3209C27.2274 17.4554 28.0969 17.1016 28.7379 16.4717C29.379 15.8419 29.7391 14.9877 29.7391 14.097V13.5009C29.7411 12.8058 29.5235 12.1272 29.1164 11.5588C28.7092 10.9903 28.1326 10.56 27.466 10.3271C26.9261 7.42834 25.3686 4.80734 23.0647 2.92038C20.7608 1.03342 17.8564 0 14.8569 0C11.8575 0 8.95305 1.03342 6.64914 2.92038C4.34523 4.80734 2.78778 7.42834 2.24788 10.3271C1.58609 10.5642 1.01498 10.9963 0.612676 11.5644C0.210375 12.1325 -0.00347168 12.8088 0.000386092 13.5009V13.9878C-0.00645816 14.4352 0.0777557 14.8794 0.248082 15.2944C0.418408 15.7093 0.671412 16.0867 0.992235 16.4042C1.31306 16.7218 1.69523 16.9732 2.11631 17.1436C2.53739 17.314 2.98888 17.4 3.44427 17.3966Z" fill="black"/>
<path d="M3.44427 17.3966H4.91411C5.14076 17.3966 5.35812 17.3082 5.51838 17.1507C5.67864 16.9932 5.76868 16.7797 5.76868 16.557V10.982C5.76868 10.7594 5.67864 10.5458 5.51838 10.3883C5.35812 10.2309 5.14076 10.1424 4.91411 10.1424H4.00828C4.58686 7.73477 5.97588 5.58957 7.95032 4.05436C9.92475 2.51916 12.3689 1.6839 14.8868 1.6839C17.4048 1.6839 19.8489 2.51916 21.8234 4.05436C23.7978 5.58957 25.1868 7.73477 25.7654 10.1424H24.851C24.6244 10.1424 24.407 10.2309 24.2468 10.3883C24.0865 10.5458 23.9965 10.7594 23.9965 10.982V16.3639L22.2104 18.8239C22.2104 18.8239 22.2104 18.8239 22.2104 18.8743H22.0822C21.7509 18.8723 21.4276 18.9748 21.1601 19.1668C20.8925 19.3589 20.6948 19.6303 20.596 19.941C20.4973 20.2518 20.5027 20.5855 20.6115 20.893C20.7203 21.2005 20.9267 21.4656 21.2004 21.6491C21.4741 21.8327 21.8005 21.925 22.1316 21.9126C22.4627 21.9001 22.781 21.7835 23.0396 21.5799C23.2982 21.3764 23.4834 21.0966 23.568 20.7818C23.6526 20.467 23.632 20.1339 23.5094 19.8315C23.5094 19.8315 23.5521 19.8315 23.5692 19.7727L25.2783 17.4554H26.3209C27.2274 17.4554 28.0969 17.1016 28.7379 16.4717C29.379 15.8419 29.7391 14.9877 29.7391 14.097V13.5009C29.7411 12.8058 29.5235 12.1272 29.1164 11.5588C28.7092 10.9903 28.1326 10.56 27.466 10.3271C26.9261 7.42834 25.3686 4.80734 23.0647 2.92038C20.7608 1.03342 17.8564 0 14.8569 0C11.8575 0 8.95305 1.03342 6.64914 2.92038C4.34523 4.80734 2.78778 7.42834 2.24788 10.3271C1.58609 10.5642 1.01498 10.9963 0.612676 11.5644C0.210375 12.1325 -0.00347168 12.8088 0.000386092 13.5009V13.9878C-0.00645816 14.4352 0.0777557 14.8794 0.248082 15.2944C0.418408 15.7093 0.671412 16.0867 0.992235 16.4042C1.31306 16.7218 1.69523 16.9732 2.11631 17.1436C2.53739 17.314 2.98888 17.4 3.44427 17.3966Z" fill="#8FDEFF"/>
<path d="M27.2625 33.7246L24.4835 27.217C23.6959 25.3898 22.378 23.8356 20.697 22.752C19.016 21.6683 17.0479 21.1041 15.0426 21.1309C13.0373 21.1577 11.0852 21.7744 9.4344 22.9026C7.78358 24.0308 6.50845 25.6197 5.77098 27.4673L3.23885 33.7246C3.14357 33.976 3.10951 34.2461 3.13944 34.513C3.16937 34.7799 3.26245 35.036 3.4111 35.2605C3.56135 35.4855 3.76503 35.6706 4.00428 35.7996C4.24353 35.9285 4.51105 35.9973 4.78339 36H25.7352C26.0079 35.9992 26.2762 35.9319 26.5163 35.8039C26.7565 35.6759 26.9611 35.4913 27.1121 35.2664C27.2631 35.0414 27.3559 34.783 27.3821 34.5141C27.4083 34.2452 27.3672 33.9741 27.2625 33.7246Z" fill="url(#paint0_linear_1_1568)"/>
<defs>
<linearGradient id="paint0_linear_1_1568" x1="15.2593" y1="21.13" x2="15.2593" y2="36" gradientUnits="userSpaceOnUse">
<stop stop-color="#3EC5FF"/>
<stop offset="1" stop-color="#0A98D5"/>
</linearGradient>
</defs>
</svg>
