<svg width="20" height="20" viewBox="0 0 20 20" fill="none" xmlns="http://www.w3.org/2000/svg">
<circle cx="10" cy="10" r="10" fill="white"/>
<path d="M13.5205 13.5206H12.0388V11.2002C12.0388 10.6469 12.0289 9.93455 11.2682 9.93455C10.4964 9.93455 10.3784 10.5374 10.3784 11.1599V13.5205H8.89672V8.74873H10.3191V9.40084H10.339C10.4814 9.15745 10.6871 8.95721 10.9342 8.82147C11.1814 8.68573 11.4607 8.61957 11.7425 8.63002C13.2442 8.63002 13.5211 9.61784 13.5211 10.9029L13.5205 13.5206ZM7.22484 8.09651C6.74996 8.09659 6.36492 7.71166 6.36484 7.23678C6.36477 6.7619 6.74965 6.37686 7.22453 6.37678C7.69941 6.37666 8.08445 6.76159 8.08453 7.23647C8.08457 7.46452 7.99402 7.68324 7.8328 7.84453C7.67158 8.00582 7.45289 8.09646 7.22484 8.09651ZM7.9657 13.5206H6.48246V8.74873H7.96566V13.5206L7.9657 13.5206ZM14.2591 5.00073H5.73793C5.3352 4.9962 5.00492 5.31881 5 5.72155V14.2783C5.00477 14.6812 5.335 15.0042 5.73789 14.9999H14.2591C14.6629 15.0049 14.9944 14.682 15 14.2783V5.72088C14.9943 5.31737 14.6627 4.99479 14.2591 5.00006" fill="#6D50CC"/>
</svg>
