<svg width="20" height="20" viewBox="0 0 20 20" fill="none" xmlns="http://www.w3.org/2000/svg">
<circle cx="10" cy="10" r="10" fill="white"/>
<path d="M6.84352 9.96713C7.57685 11.4083 8.75833 12.5847 10.1995 13.3231L11.3199 12.2028C11.4574 12.0653 11.6611 12.0194 11.8394 12.0806C12.4097 12.269 13.0259 12.3708 13.6574 12.3708C13.9375 12.3708 14.1667 12.6 14.1667 12.8801V14.6574C14.1667 14.9375 13.9375 15.1667 13.6574 15.1667C8.87546 15.1667 5 11.2912 5 6.50926C5 6.22917 5.22917 6 5.50926 6H7.29167C7.57176 6 7.80093 6.22917 7.80093 6.50926C7.80093 7.14583 7.90278 7.75694 8.0912 8.32732C8.14722 8.50556 8.10648 8.70417 7.96389 8.84676L6.84352 9.96713Z" fill="#6D50CC"/>
</svg>
