<svg width="36" height="27" viewBox="0 0 36 27" fill="none" xmlns="http://www.w3.org/2000/svg">
<path d="M25.7377 26.8165L35.7121 19.8318C35.8011 19.7695 35.8736 19.6873 35.9237 19.592C35.9737 19.4968 35.9999 19.3912 36 19.2841L36 19.2825C35.9998 19.175 35.9733 19.0691 35.9229 18.9737C35.8724 18.8782 35.7994 18.7958 35.71 18.7335L25.7355 11.7939C25.6324 11.7221 25.511 11.6796 25.3848 11.671C25.2586 11.6623 25.1324 11.6879 25.0201 11.7448C24.9076 11.8015 24.8133 11.8874 24.7475 11.9932C24.6817 12.099 24.6471 12.2204 24.6473 12.3442L24.6473 15.6102L15.6887 15.6099C15.5982 15.6099 15.5086 15.6273 15.425 15.6612C15.3414 15.6951 15.2654 15.7448 15.2014 15.8074C15.1375 15.8701 15.0867 15.9444 15.0521 16.0263C15.0176 16.1081 14.9998 16.1958 14.9999 16.2844L15.0001 22.3271C15.0001 22.4157 15.0179 22.5034 15.0525 22.5853C15.0872 22.6671 15.138 22.7415 15.202 22.8042C15.266 22.8668 15.342 22.9165 15.4257 22.9503C15.5093 22.9842 15.599 23.0016 15.6895 23.0015L24.647 23.0015L24.647 26.2686C24.647 26.5205 24.7922 26.7519 25.0214 26.8682C25.1341 26.925 25.2606 26.9502 25.387 26.941C25.5134 26.9319 25.6347 26.8888 25.7377 26.8165Z" fill="#8FDEFF"/>
<path d="M25.7377 26.8165L35.7121 19.8318C35.8011 19.7695 35.8736 19.6873 35.9237 19.592C35.9737 19.4968 35.9999 19.3912 36 19.2841L36 19.2825C35.9998 19.175 35.9733 19.0691 35.9229 18.9737C35.8724 18.8782 35.7994 18.7958 35.71 18.7335L25.7355 11.7939C25.6324 11.7221 25.511 11.6796 25.3848 11.671C25.2586 11.6623 25.1324 11.6879 25.0201 11.7448C24.9076 11.8015 24.8133 11.8874 24.7475 11.9932C24.6817 12.099 24.6471 12.2204 24.6473 12.3442L24.6473 15.6102L15.6887 15.6099C15.5982 15.6099 15.5086 15.6273 15.425 15.6612C15.3414 15.6951 15.2654 15.7448 15.2014 15.8074C15.1375 15.8701 15.0867 15.9444 15.0521 16.0263C15.0176 16.1081 14.9998 16.1958 14.9999 16.2844L15.0001 22.3271C15.0001 22.4157 15.0179 22.5034 15.0525 22.5853C15.0872 22.6671 15.138 22.7415 15.202 22.8042C15.266 22.8668 15.342 22.9165 15.4257 22.9503C15.5093 22.9842 15.599 23.0016 15.6895 23.0015L24.647 23.0015L24.647 26.2686C24.647 26.5205 24.7922 26.7519 25.0214 26.8682C25.1341 26.925 25.2606 26.9502 25.387 26.941C25.5134 26.9319 25.6347 26.8888 25.7377 26.8165Z" fill="url(#paint0_linear_1_1587)"/>
<path d="M10.2623 15.1472L0.287857 8.16251C0.198896 8.10015 0.126387 8.01795 0.0763305 7.92271C0.0262737 7.82747 0.000108687 7.72194 3.32839e-07 7.61484L3.32769e-07 7.61323C0.000229772 7.50573 0.0266662 7.39984 0.077113 7.30435C0.12756 7.20886 0.20056 7.12653 0.290048 7.06421L10.2645 0.124577C10.3676 0.0528359 10.489 0.0103016 10.6152 0.00164708C10.7414 -0.00700741 10.8676 0.0185532 10.9799 0.0755202C11.0924 0.132172 11.1867 0.218113 11.2525 0.323876C11.3183 0.429639 11.3529 0.55112 11.3527 0.674934L11.3527 3.94088L20.3113 3.94061C20.4018 3.94058 20.4914 3.958 20.575 3.99189C20.6586 4.02577 20.7346 4.07546 20.7986 4.1381C20.8625 4.20074 20.9133 4.27511 20.9479 4.35695C20.9824 4.4388 21.0002 4.52652 21.0001 4.61509L20.9999 10.6577C20.9999 10.7464 20.9821 10.8341 20.9475 10.916C20.9128 10.9978 20.862 11.0722 20.798 11.1348C20.734 11.1975 20.658 11.2472 20.5743 11.281C20.4907 11.3149 20.401 11.3323 20.3105 11.3322L11.353 11.3322L11.353 14.5992C11.353 14.8512 11.2078 15.0826 10.9786 15.1989C10.8659 15.2557 10.7394 15.2809 10.613 15.2717C10.4866 15.2626 10.3653 15.2195 10.2623 15.1472Z" fill="#8FDEFF"/>
<defs>
<linearGradient id="paint0_linear_1_1587" x1="36" y1="19.3061" x2="14.9999" y2="19.3061" gradientUnits="userSpaceOnUse">
<stop stop-color="#3EC5FF"/>
<stop offset="1" stop-color="#0A98D5"/>
</linearGradient>
</defs>
</svg>
