<svg width="36" height="36" viewBox="0 0 36 36" fill="none" xmlns="http://www.w3.org/2000/svg">
<path d="M3.87923 35.2443H19.3965C21.539 35.2443 23.2758 33.5075 23.2758 31.365V10.5145L16.9719 4.21086H3.87923C1.73679 4.21086 0 5.94766 0 8.0901V31.365C0 33.5075 1.73679 35.2443 3.87923 35.2443Z" fill="url(#paint0_linear_1_1572)"/>
<path d="M23.2795 10.5145H18.5707C17.4462 10.5145 16.5574 9.56135 16.6358 8.4396L16.9316 4.21086L23.2795 10.5145Z" fill="#9155F5"/>
<path d="M7.58374 11.4754C7.24311 11.816 6.78113 12.0074 6.29941 12.0074C5.81769 12.0074 5.35571 11.816 5.01509 11.4754C4.67446 11.1348 4.48311 10.6728 4.48311 10.1911C4.48311 9.70942 4.67446 9.24745 5.01509 8.90684C5.35571 8.56622 5.81769 8.37487 6.29941 8.37487C6.78113 8.37487 7.24311 8.56622 7.58374 8.90684C7.92436 9.24745 8.11572 9.70942 8.11572 10.1911C8.11572 10.6728 7.92436 11.1348 7.58374 11.4754ZM3.19001 14.231C3.19025 13.964 3.29644 13.7079 3.48528 13.5191C3.67433 13.33 3.93075 13.2238 4.19813 13.2238H8.4007C8.66807 13.2238 8.92449 13.33 9.11354 13.5191C9.3026 13.7082 9.40881 13.9646 9.40881 14.2319L9.40877 14.2333L9.40826 14.2485C9.40762 14.263 9.40627 14.2861 9.40343 14.3164C9.39773 14.3772 9.38608 14.4667 9.36236 14.5751C9.31475 14.7927 9.21973 15.0814 9.03124 15.3686C8.66542 15.926 7.91165 16.5331 6.29941 16.5331C4.68717 16.5331 3.9334 15.926 3.56758 15.3686C3.37909 15.0814 3.28407 14.7927 3.23646 14.5751C3.21274 14.4667 3.20109 14.3772 3.19539 14.3164C3.19255 14.2861 3.1912 14.263 3.19056 14.2485L3.19005 14.2333L3.19001 14.2313L3.19001 14.2316C3.19001 14.2317 3.19001 14.2319 2.90503 14.2319H3.19001C3.19001 14.2316 3.19001 14.2313 3.19001 14.231ZM9.40882 14.2309C9.40882 14.2307 9.40882 14.2307 9.40882 14.2308V14.2309Z" stroke="#3C54BC" stroke-width="0.569959"/>
<path d="M4.39282 23.4367H18.2921" stroke="#3C54BC" stroke-width="2.20677" stroke-linecap="round"/>
<path d="M4.39282 27.4623H11.9924" stroke="#3C54BC" stroke-width="2.20677" stroke-linecap="round"/>
<path d="M9.17596 30.98L24.1645 34.996C26.2339 35.5505 28.3611 34.3224 28.9156 32.253L34.3123 12.1129L29.8548 4.39252L17.2082 1.00399C15.1388 0.449502 13.0117 1.67761 12.4571 3.74705L6.43295 26.2289C5.87843 28.2984 7.10652 30.4255 9.17596 30.98Z" fill="url(#paint1_linear_1_1572)"/>
<path d="M9.17596 30.98L24.1645 34.996C26.2339 35.5505 28.3611 34.3224 28.9156 32.253L34.3123 12.1129L29.8548 4.39252L17.2082 1.00399C15.1388 0.449502 13.0117 1.67761 12.4571 3.74705L6.43295 26.2289C5.87843 28.2984 7.10652 30.4255 9.17596 30.98Z" fill="url(#paint2_linear_1_1572)"/>
<path d="M34.3087 12.1128L29.7604 10.8941C28.6742 10.6031 28.0623 9.45235 28.4285 8.38912L29.8086 4.38101L34.3087 12.1128Z" fill="#8FDEFF"/>
<path d="M17.4625 9.43741C18.0008 9.58165 18.5744 9.50614 19.057 9.2275C19.5396 8.94886 19.8918 8.48992 20.036 7.95163C20.1803 7.41334 20.1048 6.8398 19.8261 6.35718C19.5475 5.87456 19.0885 5.5224 18.5502 5.37817C18.0119 5.23393 17.4383 5.30944 16.9557 5.58808C16.4731 5.86672 16.1209 6.32567 15.9767 6.86396C15.8324 7.40225 15.9079 7.97578 16.1866 8.4584C16.4652 8.94102 16.9242 9.29318 17.4625 9.43741ZM13.6818 10.4324C13.7705 10.1012 13.9872 9.81873 14.2842 9.64726C14.5813 9.47579 14.9342 9.42932 15.2655 9.51808L19.3248 10.6058C19.6561 10.6945 19.9385 10.9112 20.11 11.2082C20.2815 11.5052 20.328 11.8582 20.2392 12.1894C20.2392 12.1894 19.5698 14.6874 16.2911 13.8089C13.0124 12.9304 13.6818 10.4324 13.6818 10.4324Z" fill="#2930DD"/>
<path d="M17.4625 9.43741C18.0008 9.58165 18.5744 9.50614 19.057 9.2275C19.5396 8.94886 19.8918 8.48992 20.036 7.95163C20.1803 7.41334 20.1048 6.8398 19.8261 6.35718C19.5475 5.87456 19.0885 5.5224 18.5502 5.37817C18.0119 5.23393 17.4383 5.30944 16.9557 5.58808C16.4731 5.86672 16.1209 6.32567 15.9767 6.86396C15.8324 7.40225 15.9079 7.97578 16.1866 8.4584C16.4652 8.94102 16.9242 9.29318 17.4625 9.43741ZM13.6818 10.4324C13.7705 10.1012 13.9872 9.81873 14.2842 9.64726C14.5813 9.47579 14.9342 9.42932 15.2655 9.51808L19.3248 10.6058C19.6561 10.6945 19.9385 10.9112 20.11 11.2082C20.2815 11.5052 20.328 11.8582 20.2392 12.1894C20.2392 12.1894 19.5698 14.6874 16.2911 13.8089C13.0124 12.9304 13.6818 10.4324 13.6818 10.4324Z" fill="url(#paint3_linear_1_1572)"/>
<path d="M17.4625 9.43741C18.0008 9.58165 18.5744 9.50614 19.057 9.2275C19.5396 8.94886 19.8918 8.48992 20.036 7.95163C20.1803 7.41334 20.1048 6.8398 19.8261 6.35718C19.5475 5.87456 19.0885 5.5224 18.5502 5.37817C18.0119 5.23393 17.4383 5.30944 16.9557 5.58808C16.4731 5.86672 16.1209 6.32567 15.9767 6.86396C15.8324 7.40225 15.9079 7.97578 16.1866 8.4584C16.4652 8.94102 16.9242 9.29318 17.4625 9.43741ZM13.6818 10.4324C13.7705 10.1012 13.9872 9.81873 14.2842 9.64726C14.5813 9.47579 14.9342 9.42932 15.2655 9.51808L19.3248 10.6058C19.6561 10.6945 19.9385 10.9112 20.11 11.2082C20.2815 11.5052 20.328 11.8582 20.2392 12.1894C20.2392 12.1894 19.5698 14.6874 16.2911 13.8089C13.0124 12.9304 13.6818 10.4324 13.6818 10.4324Z" fill="#8FDEFF"/>
<path d="M12.2454 19.433L25.6711 23.0303" stroke="#8FDEFF" stroke-width="2.20677" stroke-linecap="round"/>
<path d="M11.0298 24.2732L18.3704 26.24" stroke="#8FDEFF" stroke-width="2.20677" stroke-linecap="round"/>
<defs>
<linearGradient id="paint0_linear_1_1572" x1="1" y1="5.99992" x2="13.5001" y2="2.5003" gradientUnits="userSpaceOnUse">
<stop stop-color="#8FDEFF"/>
<stop offset="1" stop-color="#8FDEFF" stop-opacity="0"/>
</linearGradient>
<linearGradient id="paint1_linear_1_1572" x1="22.3188" y1="23.4876" x2="28.2052" y2="32.7734" gradientUnits="userSpaceOnUse">
<stop stop-color="white"/>
<stop offset="1" stop-color="white" stop-opacity="0"/>
</linearGradient>
<linearGradient id="paint2_linear_1_1572" x1="24.7025" y1="3.01201" x2="16.6707" y2="32.9881" gradientUnits="userSpaceOnUse">
<stop stop-color="#3EC5FF"/>
<stop offset="1" stop-color="#0A98D5"/>
</linearGradient>
<linearGradient id="paint3_linear_1_1572" x1="16.8632" y1="5.62122" x2="19.5648" y2="13.2591" gradientUnits="userSpaceOnUse">
<stop stop-color="#9154F4"/>
<stop offset="1" stop-color="#4C2EC7"/>
</linearGradient>
</defs>
</svg>
