<svg width="48" height="48" viewBox="0 0 48 48" fill="none" xmlns="http://www.w3.org/2000/svg">
<circle cx="24" cy="24" r="24" fill="#2930DD"/>
<circle cx="24" cy="24" r="24" fill="#9279F6"/>
<path d="M38.8905 22.6442C38.8258 18.7376 37.2285 15.0128 34.443 12.273C31.6574 9.53319 27.9067 7.99777 23.9996 7.99777C20.0924 7.99777 16.3417 9.53319 13.5562 12.273C10.7706 15.0128 9.17332 18.7376 9.10863 22.6442C8.77225 22.8357 8.49244 23.1127 8.29755 23.4472C8.10265 23.7816 7.99959 24.1616 7.99878 24.5487V28.9627C7.9987 29.2526 8.05573 29.5396 8.16662 29.8074C8.2775 30.0752 8.44006 30.3185 8.64502 30.5235C8.84997 30.7285 9.0933 30.891 9.36111 31.0019C9.62891 31.1128 9.91594 31.1698 10.2058 31.1697V22.8935C10.2058 19.2351 11.6591 15.7266 14.2459 13.1398C16.8327 10.5529 20.3412 9.09967 23.9996 9.09967C27.6579 9.09967 31.1664 10.5529 33.7533 13.1398C36.3401 15.7266 37.7934 19.2351 37.7934 22.8935V32.825C37.7919 34.1415 37.2683 35.4038 36.3373 36.3347C35.4064 37.2657 34.1442 37.7893 32.8276 37.7908H27.2087C27.0956 37.4687 26.8855 37.1897 26.6072 36.9921C26.3289 36.7944 25.9962 36.6879 25.6548 36.6873H22.3443C21.9053 36.6873 21.4843 36.8616 21.1739 37.1721C20.8635 37.4825 20.6891 37.9035 20.6891 38.3425C20.6891 38.7815 20.8635 39.2025 21.1739 39.513C21.4843 39.8234 21.9053 39.9978 22.3443 39.9978H25.6548C25.9962 39.9971 26.3289 39.8906 26.6072 39.693C26.8855 39.4953 27.0956 39.2163 27.2087 38.8943H32.8276C34.4367 38.8924 35.9794 38.2524 37.1172 37.1146C38.255 35.9768 38.8951 34.4341 38.8969 32.825V30.8638C39.2316 30.6718 39.5098 30.3949 39.7035 30.0612C39.8972 29.7275 39.9996 29.3486 40.0004 28.9627V24.5487C39.9996 24.1616 39.8965 23.7816 39.7016 23.4472C39.5067 23.1127 39.2269 22.8357 38.8905 22.6442Z" fill="white"/>
<path d="M31.1685 30.619V22.8945C31.1691 22.3094 31.4018 21.7484 31.8156 21.3346C32.2293 20.9208 32.7903 20.6881 33.3755 20.6875H34.479C35.0641 20.6881 35.6251 20.9208 36.0389 21.3346C36.4526 21.7484 36.6854 22.3094 36.686 22.8945V30.619C36.6854 31.2042 36.4526 31.7652 36.0389 32.1789C35.6251 32.5927 35.0641 32.8254 34.479 32.826H33.3755C32.7903 32.8254 32.2293 32.5927 31.8156 32.1789C31.4018 31.7652 31.1691 31.2042 31.1685 30.619Z" fill="white"/>
<path d="M14.624 20.6875H13.5205C12.9353 20.6881 12.3743 20.9208 11.9606 21.3346C11.5468 21.7484 11.3141 22.3094 11.3135 22.8945V30.619C11.3141 31.2042 11.5468 31.7652 11.9606 32.1789C12.3743 32.5927 12.9353 32.8254 13.5205 32.826H14.624C15.2091 32.8254 15.7701 32.5927 16.1839 32.1789C16.5977 31.7652 16.8304 31.2042 16.831 30.619V22.8945C16.8304 22.3094 16.5977 21.7484 16.1839 21.3346C15.7701 20.9208 15.2091 20.6881 14.624 20.6875Z" fill="white"/>
</svg>
